AbhayaLibre-latin-1.ufo
<glyph name="exclam" format="1">
  <advance width="234"/>
  <unicode hex="0021"/>
  <outline>
    <contour>
      <point x="134" y="192" type="line"/>
      <point x="134" y="382"/>
      <point x="191" y="456"/>
      <point x="191" y="539" type="curve" smooth="yes"/>
      <point x="191" y="579"/>
      <point x="173" y="610"/>
      <point x="118" y="610" type="curve" smooth="yes"/>
      <point x="63" y="610"/>
      <point x="43" y="578"/>
      <point x="43" y="538" type="curve" smooth="yes"/>
      <point x="43" y="455"/>
      <point x="100" y="382"/>
      <point x="100" y="192" type="curve"/>
    </contour>
    <component base="period" xOffset="23"/>
  </outline>
</glyph>
<glyph name="numbersign" format="1">
  <advance width="579"/>
  <unicode hex="0023"/>
  <outline>
    <contour>
      <point x="148" y="-10" type="line"/>
      <point x="188" y="-10" type="line"/>
      <point x="268" y="600" type="line"/>
      <point x="228" y="600" type="line"/>
    </contour>
    <contour>
      <point x="312" y="-10" type="line"/>
      <point x="352" y="-10" type="line"/>
      <point x="432" y="600" type="line"/>
      <point x="392" y="600" type="line"/>
    </contour>
    <contour>
      <point x="73" y="360" type="line"/>
      <point x="519" y="360" type="line"/>
      <point x="519" y="418" type="line"/>
      <point x="73" y="418" type="line"/>
    </contour>
    <contour>
      <point x="60" y="192" type="line"/>
      <point x="506" y="192" type="line"/>
      <point x="506" y="250" type="line"/>
      <point x="60" y="250" type="line"/>
    </contour>
  </outline>
</glyph>
<glyph name="parenleft" format="1">
  <advance width="336"/>
  <unicode hex="0028"/>
  <outline>
    <contour>
      <point x="312" y="650" type="line"/>
      <point x="138" y="603"/>
      <point x="50" y="424"/>
      <point x="50" y="246" type="curve" smooth="yes"/>
      <point x="50" y="71"/>
      <point x="135" y="-103"/>
      <point x="309" y="-150" type="curve"/>
      <point x="319" y="-122" type="line"/>
      <point x="196" y="-77"/>
      <point x="181" y="84"/>
      <point x="181" y="248" type="curve" smooth="yes"/>
      <point x="181" y="413"/>
      <point x="198" y="576"/>
      <point x="321" y="622" type="curve"/>
    </contour>
  </outline>
</glyph>
<glyph name="five" format="1">
  <advance width="523"/>
  <unicode hex="0035"/>
  <outline>
    <contour>
      <point x="356" y="-80"/>
      <point x="489" y="-26"/>
      <point x="489" y="114" type="curve" smooth="yes"/>
      <point x="489" y="239"/>
      <point x="397" y="300"/>
      <point x="284" y="300" type="curve" smooth="yes"/>
      <point x="225" y="300"/>
      <point x="163" y="281"/>
      <point x="110" y="243" type="curve"/>
      <point x="131" y="215" type="line"/>
      <point x="169" y="246"/>
      <point x="208" y="260"/>
      <point x="243" y="260" type="curve" smooth="yes"/>
      <point x="311" y="260"/>
      <point x="359" y="209"/>
      <point x="359" y="113" type="curve" smooth="yes"/>
      <point x="359" y="33"/>
      <point x="337" y="-53"/>
      <point x="246" y="-53" type="curve" smooth="yes"/>
      <point x="126" y="-53"/>
      <point x="237" y="110"/>
      <point x="119" y="110" type="curve" smooth="yes"/>
      <point x="79" y="110"/>
      <point x="55" y="85"/>
      <point x="55" y="47" type="curve" smooth="yes"/>
      <point x="55" y="-37"/>
      <point x="141" y="-80"/>
      <point x="236" y="-80" type="curve" smooth="yes"/>
    </contour>
    <contour>
      <point x="131" y="516" type="line"/>
      <point x="97" y="516" type="line"/>
      <point x="97" y="241" type="line"/>
      <point x="131" y="215" type="line"/>
    </contour>
    <contour>
      <point x="418" y="434"/>
      <point x="439" y="460"/>
      <point x="439" y="580" type="curve"/>
      <point x="412" y="580" type="line"/>
      <point x="399" y="544"/>
      <point x="381" y="533"/>
      <point x="315" y="533" type="curve" smooth="yes"/>
      <point x="270" y="533"/>
      <point x="197" y="538"/>
      <point x="97" y="542" type="curve"/>
      <point x="97" y="447" type="line"/>
      <point x="162" y="438"/>
      <point x="227" y="434"/>
      <point x="272" y="434" type="curve" smooth="yes"/>
    </contour>
  </outline>
</glyph>
<glyph name="question" format="1">
  <advance width="467"/>
  <unicode hex="003F"/>
  <outline>
    <contour>
      <point x="225" y="192" type="line"/>
      <point x="225" y="348"/>
      <point x="417" y="331"/>
      <point x="417" y="483" type="curve" smooth="yes"/>
      <point x="417" y="574"/>
      <point x="320" y="610"/>
      <point x="224" y="610" type="curve" smooth="yes"/>
      <point x="141" y="610"/>
      <point x="50" y="576"/>
      <point x="50" y="507" type="curve" smooth="yes"/>
      <point x="50" y="477"/>
      <point x="70" y="453"/>
      <point x="110" y="453" type="curve" smooth="yes"/>
      <point x="211" y="453"/>
      <point x="125" y="584"/>
      <point x="224" y="584" type="curve" smooth="yes"/>
      <point x="254" y="584"/>
      <point x="290" y="565"/>
      <point x="290" y="500" type="curve" smooth="yes"/>
      <point x="290" y="321"/>
      <point x="191" y="358"/>
      <point x="191" y="192" type="curve"/>
    </contour>
    <component base="period" xOffset="117"/>
  </outline>
</glyph>
<glyph name="L" format="1">
  <advance width="514"/>
  <unicode hex="004C"/>
  <outline>
    <contour>
      <point x="510" y="0" type="line"/>
      <point x="514" y="217" type="line"/>
      <point x="485" y="217" type="line"/>
      <point x="456" y="123" type="line" smooth="yes"/>
      <point x="441" y="74"/>
      <point x="419" y="27"/>
      <point x="343" y="27" type="curve" smooth="yes"/>
      <point x="20" y="27" type="line"/>
      <point x="20" y="0" type="line"/>
    </contour>
    <contour>
      <point x="325" y="573" type="line"/>
      <point x="325" y="600" type="line"/>
      <point x="20" y="600" type="line"/>
      <point x="20" y="573" type="line"/>
    </contour>
    <component base="vertical_stem_upper" xOffset="58"/>
    <contour>
      <point x="260" y="630" type="move" name="top"/>
    </contour>
    <contour>
      <point x="260" y="0" type="move" name="bottom"/>
    </contour>
    <contour>
      <point x="497" y="630" type="move" name="topright"/>
    </contour>
  </outline>
</glyph>
<glyph name="N" format="1">
  <advance width="664"/>
  <unicode hex="004E"/>
  <outline>
    <contour>
      <point x="457" y="573" type="line"/>
      <point x="537" y="573" type="line"/>
      <point x="537" y="164" type="line"/>
      <point x="556" y="164" type="line"/>
      <point x="184" y="600" type="line"/>
      <point x="15" y="600" type="line"/>
      <point x="15" y="573" type="line"/>
      <point x="95" y="573" type="line"/>
      <point x="95" y="27" type="line"/>
      <point x="15" y="27" type="line"/>
      <point x="15" y="0" type="line"/>
      <point x="222" y="0" type="line"/>
      <point x="222" y="20"/>
      <point x="215" y="27"/>
      <point x="195" y="27" type="curve" smooth="yes"/>
      <point x="137" y="27" type="line"/>
      <point x="137" y="476" type="line"/>
      <point x="110" y="476" type="line"/>
      <point x="522" y="-5" type="line"/>
      <point x="579" y="5" type="line"/>
      <point x="579" y="573" type="line"/>
      <point x="659" y="573" type="line"/>
      <point x="659" y="600" type="line"/>
      <point x="457" y="600" type="line"/>
    </contour>
    <contour>
      <point x="335" y="630" type="move" name="top"/>
    </contour>
    <contour>
      <point x="332" y="0" type="move" name="bottom"/>
    </contour>
  </outline>
</glyph>
<glyph name="V" format="1">
  <advance width="593"/>
  <unicode hex="0056"/>
  <outline>
    <contour>
      <point x="334" y="-5" type="line"/>
      <point x="543" y="573" type="line"/>
      <point x="503" y="573" type="line"/>
      <point x="342" y="122" type="line"/>
      <point x="363" y="122" type="line"/>
      <point x="170" y="600" type="line"/>
      <point x="30" y="600" type="line"/>
      <point x="239" y="77" type="line" smooth="yes"/>
      <point x="268" y="4"/>
      <point x="273" y="-5"/>
      <point x="313" y="-5" type="curve" smooth="yes"/>
    </contour>
    <contour>
      <point x="260" y="573" type="line"/>
      <point x="260" y="600" type="line"/>
      <point x="-10" y="600" type="line"/>
      <point x="-10" y="573" type="line"/>
    </contour>
    <contour>
      <point x="593" y="573" type="line"/>
      <point x="593" y="600" type="line"/>
      <point x="423" y="600" type="line"/>
      <point x="423" y="573" type="line"/>
    </contour>
  </outline>
</glyph>
<glyph name="g" format="1">
  <advance width="506"/>
  <unicode hex="0067"/>
  <outline>
    <contour>
      <point x="174" y="134"/>
      <point x="170" y="183"/>
      <point x="170" y="276" type="curve" smooth="yes"/>
      <point x="170" y="372"/>
      <point x="178" y="419"/>
      <point x="239" y="419" type="curve" smooth="yes"/>
      <point x="303" y="419"/>
      <point x="309" y="372"/>
      <point x="309" y="279" type="curve" smooth="yes"/>
      <point x="309" y="183"/>
      <point x="300" y="134"/>
      <point x="238" y="134" type="curve" smooth="yes"/>
    </contour>
    <contour>
      <point x="436" y="369"/>
      <point x="368" y="445"/>
      <point x="243" y="445" type="curve" smooth="yes"/>
      <point x="118" y="445"/>
      <point x="43" y="371"/>
      <point x="43" y="279" type="curve" smooth="yes"/>
      <point x="43" y="187"/>
      <point x="143" y="108"/>
      <point x="238" y="108" type="curve" smooth="yes"/>
      <point x="362" y="108"/>
      <point x="436" y="190"/>
      <point x="436" y="281" type="curve" smooth="yes"/>
    </contour>
    <contour>
      <point x="377" y="327"/>
      <point x="372" y="341"/>
      <point x="372" y="362" type="curve" smooth="yes"/>
      <point x="372" y="400"/>
      <point x="396" y="430"/>
      <point x="423" y="430" type="curve" smooth="yes"/>
      <point x="449" y="430"/>
      <point x="456" y="401"/>
      <point x="483" y="401" type="curve" smooth="yes"/>
      <point x="508" y="401"/>
      <point x="521" y="420"/>
      <point x="521" y="439" type="curve" smooth="yes"/>
      <point x="521" y="466"/>
      <point x="499" y="497"/>
      <point x="451" y="497" type="curve" smooth="yes"/>
      <point x="396" y="497"/>
      <point x="352" y="436"/>
      <point x="352" y="351" type="curve" smooth="yes"/>
      <point x="352" y="345"/>
      <point x="352" y="339"/>
      <point x="353" y="333" type="curve"/>
      <point x="384" y="312" type="line"/>
    </contour>
    <contour>
      <point x="139" y="135" type="line" smooth="yes"/>
      <point x="79" y="136"/>
      <point x="49" y="87"/>
      <point x="49" y="43" type="curve" smooth="yes"/>
      <point x="49" y="-3"/>
      <point x="83" y="-57"/>
      <point x="152" y="-58" type="curve" smooth="yes"/>
      <point x="354" y="-60" type="line" smooth="yes"/>
      <point x="404" y="-60"/>
      <point x="426" y="-65"/>
      <point x="426" y="-95" type="curve" smooth="yes"/>
      <point x="426" y="-143"/>
      <point x="344" y="-168"/>
      <point x="247" y="-168" type="curve" smooth="yes"/>
      <point x="143" y="-168"/>
      <point x="95" y="-134"/>
      <point x="95" y="-92" type="curve" smooth="yes"/>
      <point x="95" y="-69"/>
      <point x="109" y="-44"/>
      <point x="137" y="-20" type="curve"/>
      <point x="114" y="-9" type="line"/>
      <point x="79" y="-36"/>
      <point x="60" y="-67"/>
      <point x="60" y="-96" type="curve" smooth="yes"/>
      <point x="60" y="-149"/>
      <point x="121" y="-195"/>
      <point x="247" y="-195" type="curve" smooth="yes"/>
      <point x="410" y="-195"/>
      <point x="474" y="-132"/>
      <point x="474" y="-68" type="curve" smooth="yes"/>
      <point x="474" y="7"/>
      <point x="425" y="47"/>
      <point x="337" y="49" type="curve" smooth="yes"/>
      <point x="130" y="53" type="line" smooth="yes"/>
      <point x="109" y="54"/>
      <point x="98" y="69"/>
      <point x="98" y="82" type="curve" smooth="yes"/>
      <point x="98" y="96"/>
      <point x="109" y="109"/>
      <point x="131" y="109" type="curve" smooth="yes"/>
      <point x="238" y="108" type="line"/>
      <point x="196" y="135" type="line"/>
    </contour>
    <contour>
      <point x="251" y="500" type="move" name="top"/>
    </contour>
  </outline>
</glyph>
<glyph name="j" format="1">
  <advance width="287"/>
  <unicode hex="006A"/>
  <outline>
    <contour>
      <point x="199" y="488"/>
      <point x="233" y="520"/>
      <point x="233" y="561" type="curve" smooth="yes"/>
      <point x="233" y="602"/>
      <point x="199" y="636"/>
      <point x="158" y="636" type="curve" smooth="yes"/>
      <point x="117" y="636"/>
      <point x="84" y="602"/>
      <point x="84" y="561" type="curve" smooth="yes"/>
      <point x="84" y="520"/>
      <point x="117" y="488"/>
      <point x="158" y="488" type="curve" smooth="yes"/>
    </contour>
    <contour>
      <point x="37" y="430" type="line"/>
      <point x="37" y="404" type="line"/>
      <point x="100" y="404" type="line"/>
      <point x="100" y="78" type="line" smooth="yes"/>
      <point x="100" y="-1"/>
      <point x="106" y="-82"/>
      <point x="106" y="-120" type="curve" smooth="yes"/>
      <point x="106" y="-153"/>
      <point x="95" y="-168"/>
      <point x="79" y="-168" type="curve" smooth="yes"/>
      <point x="31" y="-168"/>
      <point x="71" y="-68"/>
      <point x="-6" y="-68" type="curve" smooth="yes"/>
      <point x="-36" y="-68"/>
      <point x="-55" y="-88"/>
      <point x="-55" y="-114" type="curve" smooth="yes"/>
      <point x="-55" y="-153"/>
      <point x="-18" y="-195"/>
      <point x="66" y="-195" type="curve" smooth="yes"/>
      <point x="150" y="-195"/>
      <point x="227" y="-145"/>
      <point x="227" y="36" type="curve" smooth="yes"/>
      <point x="227" y="430" type="line"/>
    </contour>
  </outline>
</glyph>
<glyph name="w" format="1">
  <advance width="710"/>
  <unicode hex="0077"/>
  <outline>
    <contour>
      <point x="236" y="404" type="line"/>
      <point x="236" y="430" type="line"/>
      <point x="5" y="430" type="line"/>
      <point x="5" y="404" type="line"/>
      <point x="47" y="404" type="line"/>
      <point x="163" y="68" type="line" smooth="yes"/>
      <point x="185" y="4"/>
      <point x="198" y="-5"/>
      <point x="230" y="-5" type="curve" smooth="yes"/>
      <point x="263" y="-5" type="line"/>
      <point x="365" y="313" type="line"/>
      <point x="343" y="342" type="line"/>
      <point x="267" y="94" type="line"/>
      <point x="279" y="94" type="line"/>
      <point x="176" y="404" type="line"/>
    </contour>
    <contour>
      <point x="499" y="404" type="line"/>
      <point x="499" y="430" type="line"/>
      <point x="305" y="430" type="line"/>
      <point x="430" y="68" type="line" smooth="yes"/>
      <point x="452" y="5"/>
      <point x="457" y="-5"/>
      <point x="494" y="-5" type="curve" smooth="yes"/>
      <point x="527" y="-5" type="line"/>
      <point x="652" y="375" type="line" smooth="yes"/>
      <point x="660" y="398"/>
      <point x="669" y="404"/>
      <point x="690" y="404" type="curve" smooth="yes"/>
      <point x="706" y="404"/>
      <point x="710" y="410"/>
      <point x="710" y="430" type="curve"/>
      <point x="568" y="430" type="line"/>
      <point x="568" y="404" type="line"/>
      <point x="630" y="404" type="line"/>
      <point x="531" y="94" type="line"/>
      <point x="543" y="94" type="line"/>
      <point x="439" y="404" type="line"/>
    </contour>
  </outline>
</glyph>
<glyph name="y" format="1">
  <advance width="490"/>
  <unicode hex="0079"/>
  <outline>
    <contour>
      <point x="203" y="-121"/>
      <point x="171" y="-160"/>
      <point x="130" y="-160" type="curve" smooth="yes"/>
      <point x="88" y="-160"/>
      <point x="109" y="-80"/>
      <point x="46" y="-80" type="curve" smooth="yes"/>
      <point x="16" y="-80"/>
      <point x="-2" y="-102"/>
      <point x="-2" y="-126" type="curve" smooth="yes"/>
      <point x="-2" y="-157"/>
      <point x="35" y="-195"/>
      <point x="103" y="-195" type="curve" smooth="yes"/>
      <point x="177" y="-195"/>
      <point x="231" y="-146"/>
      <point x="282" y="-13" type="curve" smooth="yes"/>
      <point x="432" y="376" type="line" smooth="yes"/>
      <point x="442" y="401"/>
      <point x="450" y="405"/>
      <point x="465" y="405" type="curve" smooth="yes"/>
      <point x="485" y="405"/>
      <point x="490" y="410"/>
      <point x="490" y="430" type="curve"/>
      <point x="335" y="430" type="line"/>
      <point x="335" y="405" type="line"/>
      <point x="410" y="405" type="line"/>
      <point x="293" y="107" type="line"/>
      <point x="309" y="107" type="line"/>
      <point x="180" y="405" type="line"/>
      <point x="241" y="405" type="line"/>
      <point x="241" y="430" type="line"/>
      <point x="6" y="430" type="line"/>
      <point x="6" y="405" type="line"/>
      <point x="48" y="405" type="line"/>
      <point x="243" y="-21" type="line"/>
    </contour>
  </outline>
</glyph>
<glyph name="bar" format="1">
  <advance width="260"/>
  <unicode hex="007C"/>
  <outline>
    <contour>
      <point x="90" y="-136" type="line"/>
      <point x="90" y="650" type="line"/>
      <point x="170" y="650" type="line"/>
      <point x="170" y="-136" type="line"/>
    </contour>
  </outline>
</glyph>
<glyph name="section" format="1">
  <advance width="473"/>
  <unicode hex="00A7"/>
  <outline>
    <contour>
      <point x="364" y="166"/>
      <point x="438" y="223"/>
      <point x="438" y="301" type="curve" smooth="yes"/>
      <point x="438" y="452"/>
      <point x="179" y="438"/>
      <point x="179" y="539" type="curve" smooth="yes"/>
      <point x="179" y="575"/>
      <point x="210" y="595"/>
      <point x="241" y="595" type="curve" smooth="yes"/>
      <point x="330" y="595"/>
      <point x="270" y="486"/>
      <point x="352" y="486" type="curve" smooth="yes"/>
      <point x="381" y="486"/>
      <point x="398" y="505"/>
      <point x="398" y="533" type="curve" smooth="yes"/>
      <point x="398" y="588"/>
      <point x="313" y="623"/>
      <point x="241" y="623" type="curve" smooth="yes"/>
      <point x="143" y="623"/>
      <point x="56" y="584"/>
      <point x="56" y="499" type="curve" smooth="yes"/>
      <point x="56" y="353"/>
      <point x="318" y="365"/>
      <point x="318" y="260" type="curve" smooth="yes"/>
      <point x="318" y="217"/>
      <point x="287" y="178"/>
      <point x="229" y="180" type="curve"/>
      <point x="250" y="170" type="line"/>
    </contour>
    <contour>
      <point x="317" y="-48"/>
      <point x="412" y="-7"/>
      <point x="412" y="77" type="curve" smooth="yes"/>
      <point x="412" y="210"/>
      <point x="155" y="212"/>
      <point x="155" y="314" type="curve" smooth="yes"/>
      <point x="155" y="358"/>
      <point x="186" y="398"/>
      <point x="245" y="395" type="curve"/>
      <point x="224" y="405" type="line"/>
      <point x="109" y="411"/>
      <point x="35" y="355"/>
      <point x="35" y="277" type="curve" smooth="yes"/>
      <point x="35" y="128"/>
      <point x="285" y="124"/>
      <point x="285" y="35" type="curve" smooth="yes"/>
      <point x="285" y="-1"/>
      <point x="256" y="-20"/>
      <point x="223" y="-20" type="curve" smooth="yes"/>
      <point x="136" y="-20"/>
      <point x="201" y="95"/>
      <point x="110" y="95" type="curve" smooth="yes"/>
      <point x="77" y="95"/>
      <point x="60" y="75"/>
      <point x="60" y="49" type="curve" smooth="yes"/>
      <point x="60" y="-16"/>
      <point x="141" y="-48"/>
      <point x="226" y="-48" type="curve" smooth="yes"/>
    </contour>
  </outline>
</glyph>
<glyph name="ordmasculine" format="1">
  <advance width="316"/>
  <unicode hex="00BA"/>
  <outline>
    <contour>
      <point x="118" y="349"/>
      <point x="111" y="388"/>
      <point x="111" y="462" type="curve" smooth="yes"/>
      <point x="111" y="538"/>
      <point x="121" y="575"/>
      <point x="156" y="575" type="curve" smooth="yes"/>
      <point x="194" y="575"/>
      <point x="202" y="538"/>
      <point x="202" y="464" type="curve" smooth="yes"/>
      <point x="202" y="388"/>
      <point x="191" y="349"/>
      <point x="156" y="349" type="curve" smooth="yes"/>
    </contour>
    <contour>
      <point x="306" y="539"/>
      <point x="250" y="600"/>
      <point x="159" y="600" type="curve" smooth="yes"/>
      <point x="68" y="600"/>
      <point x="7" y="541"/>
      <point x="7" y="464" type="curve" smooth="yes"/>
      <point x="7" y="387"/>
      <point x="66" y="324"/>
      <point x="154" y="324" type="curve" smooth="yes"/>
      <point x="245" y="324"/>
      <point x="306" y="388"/>
      <point x="306" y="465" type="curve" smooth="yes"/>
    </contour>
    <contour>
      <point x="21" y="242" type="line"/>
      <point x="293" y="242" type="line"/>
      <point x="293" y="279" type="line"/>
      <point x="21" y="279" type="line"/>
    </contour>
  </outline>
</glyph>
<glyph name="multiply" format="1">
  <advance width="404"/>
  <unicode hex="00D7"/>
  <outline>
    <contour>
      <point x="328" y="74" type="line"/>
      <point x="359" y="105" type="line"/>
      <point x="71" y="394" type="line"/>
      <point x="40" y="363" type="line"/>
    </contour>
    <contour>
      <point x="41" y="105" type="line"/>
      <point x="70" y="75" type="line"/>
      <point x="359" y="364" type="line"/>
      <point x="330" y="394" type="line"/>
    </contour>
  </outline>
</glyph>
<glyph name="Thorn" format="1">
  <advance width="576"/>
  <unicode hex="00DE"/>
  <outline>
    <contour>
      <point x="311" y="144" type="line" smooth="yes"/>
      <point x="474" y="144"/>
      <point x="541" y="222"/>
      <point x="541" y="322" type="curve" smooth="yes"/>
      <point x="541" y="412"/>
      <point x="475" y="480"/>
      <point x="343" y="480" type="curve" smooth="yes"/>
      <point x="153" y="480" type="line"/>
      <point x="153" y="453" type="line"/>
      <point x="286" y="453" type="line" smooth="yes"/>
      <point x="368" y="453"/>
      <point x="391" y="388"/>
      <point x="391" y="313" type="curve" smooth="yes"/>
      <point x="391" y="233"/>
      <point x="362" y="174"/>
      <point x="282" y="174" type="curve" smooth="yes"/>
      <point x="153" y="174" type="line"/>
      <point x="153" y="144" type="line"/>
    </contour>
    <contour>
      <point x="298" y="0" type="line"/>
      <point x="298" y="23"/>
      <point x="293" y="27"/>
      <point x="274" y="27" type="curve" smooth="yes"/>
      <point x="20" y="27" type="line"/>
      <point x="20" y="0" type="line"/>
    </contour>
    <contour>
      <point x="298" y="573" type="line"/>
      <point x="298" y="600" type="line"/>
      <point x="20" y="600" type="line"/>
      <point x="20" y="573" type="line"/>
    </contour>
    <component base="vertical_stem_upper" xOffset="47"/>
  </outline>
</glyph>
<glyph name="lacute" format="1">
  <advance width="319"/>
  <unicode hex="013A"/>
  <outline>
    <contour>
      <point x="130" y="710"/>
      <point x="207" y="715"/>
      <point x="241" y="735" type="curve" smooth="yes"/>
      <point x="258" y="745"/>
      <point x="266" y="760"/>
      <point x="267" y="775" type="curve" smooth="yes"/>
      <point x="270" y="805"/>
      <point x="247" y="837"/>
      <point x="216" y="840" type="curve" smooth="yes"/>
      <point x="206" y="841"/>
      <point x="196" y="839"/>
      <point x="184" y="832" type="curve" smooth="yes"/>
      <point x="148" y="810"/>
      <point x="124" y="766"/>
      <point x="38" y="704" type="curve"/>
      <point x="51" y="681" type="line"/>
    </contour>
    <component base="l"/>
  </outline>
</glyph>
<glyph name="OE" format="1">
  <advance width="923"/>
  <unicode hex="0152"/>
  <outline>
    <contour>
      <point x="391" y="-5"/>
      <point x="464" y="0"/>
      <point x="486" y="0" type="curve" smooth="yes"/>
      <point x="874" y="0" type="line"/>
      <point x="878" y="197" type="line"/>
      <point x="849" y="197" type="line"/>
      <point x="821" y="123" type="line" smooth="yes"/>
      <point x="803" y="76"/>
      <point x="778" y="27"/>
      <point x="702" y="27" type="curve" smooth="yes"/>
      <point x="521" y="27" type="line"/>
      <point x="458" y="40" type="line"/>
      <point x="422" y="24"/>
      <point x="388" y="21"/>
      <point x="356" y="21" type="curve" smooth="yes"/>
      <point x="224" y="21"/>
      <point x="192" y="133"/>
      <point x="192" y="298" type="curve" smooth="yes"/>
      <point x="192" y="468"/>
      <point x="226" y="579"/>
      <point x="372" y="579" type="curve" smooth="yes"/>
      <point x="401" y="579"/>
      <point x="431" y="574"/>
      <point x="456" y="563" type="curve"/>
      <point x="525" y="573" type="line"/>
      <point x="702" y="573" type="line" smooth="yes"/>
      <point x="778" y="573"/>
      <point x="804" y="526"/>
      <point x="822" y="477" type="curve" smooth="yes"/>
      <point x="849" y="403" type="line"/>
      <point x="878" y="403" type="line"/>
      <point x="874" y="600" type="line"/>
      <point x="496" y="600" type="line" smooth="yes"/>
      <point x="464" y="600"/>
      <point x="388" y="605"/>
      <point x="355" y="605" type="curve" smooth="yes"/>
      <point x="190" y="605"/>
      <point x="35" y="497"/>
      <point x="35" y="302" type="curve" smooth="yes"/>
      <point x="35" y="102"/>
      <point x="187" y="-5"/>
      <point x="352" y="-5" type="curve" smooth="yes"/>
    </contour>
    <contour>
      <point x="786" y="294" type="line"/>
      <point x="786" y="324" type="line"/>
      <point x="516" y="324" type="line"/>
      <point x="516" y="294" type="line"/>
    </contour>
    <component base="vertical_stem_upper" xOffset="414"/>
    <contour>
      <point x="290" y="630" type="move" name="top"/>
    </contour>
  </outline>
</glyph>
<glyph name="ogonek" format="1">
  <advance width="500"/>
  <unicode hex="02DB"/>
  <outline>
    <contour>
      <point x="296" y="-154"/>
      <point x="278" y="-162"/>
      <point x="262" y="-162" type="curve" smooth="yes"/>
      <point x="242" y="-162"/>
      <point x="227" y="-147"/>
      <point x="227" y="-112" type="curve" smooth="yes"/>
      <point x="227" y="-75"/>
      <point x="260" y="-26"/>
      <point x="321" y="0" type="curve"/>
      <point x="320" y="10" type="line"/>
      <point x="187" y="-6"/>
      <point x="120" y="-56"/>
      <point x="120" y="-118" type="curve" smooth="yes"/>
      <point x="120" y="-168"/>
      <point x="173" y="-192"/>
      <point x="228" y="-192" type="curve" smooth="yes"/>
      <point x="266" y="-192"/>
      <point x="304" y="-180"/>
      <point x="326" y="-156" type="curve"/>
      <point x="314" y="-139" type="line"/>
    </contour>
    <contour>
      <point x="321" y="9" type="move" name="_ogonek"/>
    </contour>
  </outline>
</glyph>
<glyph name="quoteright" format="1">
  <advance width="238"/>
  <unicode hex="2019"/>
  <outline>
    <contour>
      <point x="135" y="454"/>
      <point x="168" y="521"/>
      <point x="168" y="577" type="curve" smooth="yes"/>
      <point x="168" y="624"/>
      <point x="143" y="660"/>
      <point x="94" y="660" type="curve" smooth="yes"/>
      <point x="56" y="660"/>
      <point x="26" y="628"/>
      <point x="26" y="589" type="curve" smooth="yes"/>
      <point x="26" y="551"/>
      <point x="54" y="526"/>
      <point x="83" y="520" type="curve" smooth="yes"/>
      <point x="102" y="516"/>
      <point x="109" y="509"/>
      <point x="109" y="495" type="curve" smooth="yes"/>
      <point x="109" y="478"/>
      <point x="94" y="448"/>
      <point x="70" y="423" type="curve"/>
      <point x="91" y="407" type="line"/>
    </contour>
  </outline>
</glyph>
<glyph name="quotesinglbase" format="1">
  <advance width="175"/>
  <unicode hex="201A"/>
  <outline>
    <contour>
      <point x="129" y="-51"/>
      <point x="156" y="7"/>
      <point x="156" y="56" type="curve" smooth="yes"/>
      <point x="156" y="110"/>
      <point x="121" y="136"/>
      <point x="86" y="136" type="curve" smooth="yes"/>
      <point x="53" y="136"/>
      <point x="20" y="112"/>
      <point x="20" y="68" type="curve" smooth="yes"/>
      <point x="20" y="32"/>
      <point x="46" y="8"/>
      <point x="74" y="2" type="curve" smooth="yes"/>
      <point x="92" y="-2"/>
      <point x="99" y="-8"/>
      <point x="99" y="-22" type="curve" smooth="yes"/>
      <point x="99" y="-36"/>
      <point x="88" y="-58"/>
      <point x="70" y="-80" type="curve"/>
      <point x="92" y="-94" type="line"/>
    </contour>
  </outline>
</glyph>
<glyph name="estimated" format="1">
  <advance width="735"/>
  <unicode hex="212E"/>
  <outline>
    <contour>
      <point x="312" y="20"/>
      <point x="257" y="36"/>
      <point x="213" y="66" type="curve"/>
      <point x="213" y="336" type="line"/>
      <point x="705" y="336" type="line"/>
      <point x="705" y="546"/>
      <point x="544" y="650"/>
      <point x="382" y="650" type="curve" smooth="yes"/>
      <point x="154" y="650"/>
      <point x="40" y="483"/>
      <point x="40" y="318" type="curve" smooth="yes"/>
      <point x="40" y="153"/>
      <point x="152" y="-10"/>
      <point x="373" y="-10" type="curve" smooth="yes"/>
      <point x="479" y="-10"/>
      <point x="594" y="34"/>
      <point x="658" y="102" type="curve"/>
      <point x="634" y="124" type="line"/>
      <point x="577" y="65"/>
      <point x="473" y="20"/>
      <point x="373" y="20" type="curve" smooth="yes"/>
    </contour>
    <contour>
      <point x="439" y="620"/>
      <point x="489" y="609"/>
      <point x="529" y="585" type="curve"/>
      <point x="529" y="368" type="line"/>
      <point x="213" y="368" type="line"/>
      <point x="213" y="571" type="line"/>
      <point x="260" y="603"/>
      <point x="323" y="620"/>
      <point x="385" y="620" type="curve" smooth="yes"/>
    </contour>
  </outline>
</glyph>
<glyph name="P.001" format="1">
  <advance width="565"/>
  <outline>
    <contour>
      <point x="20" y="600" type="line"/>
      <point x="20" y="573" type="line"/>
      <point x="295" y="573" type="line" smooth="yes"/>
      <point x="377" y="573"/>
      <point x="400" y="508"/>
      <point x="400" y="433" type="curve" smooth="yes"/>
      <point x="400" y="353"/>
      <point x="371" y="294"/>
      <point x="291" y="294" type="curve" smooth="yes"/>
      <point x="138" y="294" type="line"/>
      <point x="138" y="264" type="line"/>
      <point x="320" y="264" type="line" smooth="yes"/>
      <point x="483" y="264"/>
      <point x="550" y="342"/>
      <point x="550" y="442" type="curve" smooth="yes"/>
      <point x="550" y="532"/>
      <point x="484" y="600"/>
      <point x="352" y="600" type="curve" smooth="yes"/>
    </contour>
    <contour>
      <point x="356" y="0" type="line"/>
      <point x="356" y="23"/>
      <point x="351" y="27"/>
      <point x="332" y="27" type="curve" smooth="yes"/>
      <point x="20" y="27" type="line"/>
      <point x="20" y="0" type="line"/>
    </contour>
    <component base="vertical_stem_upper" xOffset="56"/>
  </outline>
</glyph>
<glyph name="two.tf" format="1">
  <advance width="525"/>
  <outline>
    <contour>
      <point x="87" y="98" type="line"/>
      <point x="87" y="210"/>
      <point x="463" y="257"/>
      <point x="463" y="455" type="curve" smooth="yes"/>
      <point x="463" y="569"/>
      <point x="349" y="610"/>
      <point x="239" y="610" type="curve" smooth="yes"/>
      <point x="133" y="610"/>
      <point x="29" y="562"/>
      <point x="29" y="481" type="curve" smooth="yes"/>
      <point x="29" y="449"/>
      <point x="50" y="420"/>
      <point x="91" y="420" type="curve" smooth="yes"/>
      <point x="212" y="420"/>
      <point x="108" y="583"/>
      <point x="230" y="583" type="curve" smooth="yes"/>
      <point x="291" y="583"/>
      <point x="315" y="531"/>
      <point x="315" y="464" type="curve" smooth="yes"/>
      <point x="315" y="251"/>
      <point x="25" y="237"/>
      <point x="25" y="30" type="curve"/>
    </contour>
    <contour>
      <point x="468" y="0" type="line"/>
      <point x="468" y="98" type="line"/>
      <point x="87" y="98" type="line"/>
      <point x="25" y="30" type="line"/>
      <point x="25" y="0" type="line"/>
    </contour>
    <contour>
      <point x="470" y="189" type="line"/>
      <point x="445" y="189" type="line"/>
      <point x="427" y="143" type="line" smooth="yes"/>
      <point x="410" y="100"/>
      <point x="390" y="98"/>
      <point x="349" y="98" type="curve"/>
      <point x="468" y="0" type="line"/>
    </contour>
  </outline>
</glyph>
